<svg height="200px" width="200px" version="1.1" id="Layer_1" xmlns="http://www.w3.org/2000/svg" xmlns:xlink="http://www.w3.org/1999/xlink" viewBox="0 0 512 512" xml:space="preserve" fill="#000000"><g id="SVGRepo_bgCarrier" stroke-width="0"></g><g id="SVGRepo_tracerCarrier" stroke-linecap="round" stroke-linejoin="round"></g><g id="SVGRepo_iconCarrier"> <path style="fill:#1E0478;" d="M479.703,30.309v451.382c0,16.706-13.603,30.309-30.309,30.309H62.606 c-16.706,0-30.309-13.603-30.309-30.309V30.309C32.297,13.603,45.9,0,62.606,0h386.788C466.1,0,479.703,13.603,479.703,30.309z M455.456,481.691V159.654h-116.81v328.099h110.748C452.728,487.753,455.456,485.025,455.456,481.691z M455.456,135.407V30.309 c0-3.334-2.728-6.062-6.062-6.062H62.606c-3.334,0-6.062,2.728-6.062,6.062v105.099H455.456z M314.399,487.753V335.797H197.601 v151.956H314.399z M314.399,311.55V159.654H197.601V311.55H314.399z M173.354,487.753V335.797H56.544v145.894 c0,3.334,2.728,6.062,6.062,6.062H173.354z M173.354,311.55V159.654H56.544V311.55H173.354z"></path> <path style="fill:#9B8CCC;" d="M455.456,159.654v322.037c0,3.334-2.728,6.062-6.062,6.062H338.646V159.654H455.456z M439.805,302.542c0-6.692-5.431-12.124-12.124-12.124h-61.963c-6.704,0-12.124,5.431-12.124,12.124 c0,6.704,5.419,12.124,12.124,12.124h61.963C434.373,314.666,439.805,309.246,439.805,302.542z M439.805,344.865 c0-6.704-5.431-12.124-12.124-12.124h-61.963c-6.704,0-12.124,5.419-12.124,12.124c0,6.692,5.419,12.124,12.124,12.124h61.963 C434.373,356.989,439.805,351.558,439.805,344.865z"></path> <path style="fill:#9B8CCC;" d="M455.456,30.309v105.099H56.544V30.309c0-3.334,2.728-6.062,6.062-6.062h386.788 C452.728,24.247,455.456,26.975,455.456,30.309z"></path> <g> <path style="fill:#1E0478;" d="M427.681,290.419c6.692,0,12.124,5.431,12.124,12.124c0,6.704-5.431,12.124-12.124,12.124h-61.963 c-6.704,0-12.124-5.419-12.124-12.124c0-6.692,5.419-12.124,12.124-12.124H427.681L427.681,290.419z"></path> <path style="fill:#1E0478;" d="M427.681,332.742c6.692,0,12.124,5.419,12.124,12.124c0,6.692-5.431,12.124-12.124,12.124h-61.963 c-6.704,0-12.124-5.431-12.124-12.124c0-6.704,5.419-12.124,12.124-12.124H427.681z"></path> </g> <path style="fill:#6F7CCD;" d="M314.399,335.797v151.956H197.601V335.797H314.399z M287.776,397.166 c4.74-4.728,4.74-12.402,0-17.143c-4.74-4.728-12.414-4.728-17.143,0l-46.421,46.409c-4.728,4.74-4.728,12.414,0,17.155 c2.376,2.364,5.48,3.552,8.571,3.552c3.104,0,6.207-1.188,8.583-3.552L287.776,397.166z M289.546,435.016 c0-5.71-4.631-10.341-10.341-10.341s-10.341,4.631-10.341,10.341c0,5.71,4.631,10.341,10.341,10.341 C284.915,445.357,289.546,440.726,289.546,435.016z M243.125,388.595c0-5.71-4.619-10.341-10.341-10.341 c-5.71,0-10.329,4.631-10.329,10.341c0,5.71,4.619,10.341,10.329,10.341C238.506,398.936,243.125,394.305,243.125,388.595z"></path> <path style="fill:#9B8CCC;" d="M314.399,159.654V311.55H197.601V159.654H314.399z M298.699,235.608 c0-6.704-5.431-12.124-12.124-12.124h-61.151c-6.692,0-12.124,5.419-12.124,12.124c0,6.692,5.431,12.124,12.124,12.124h61.151 C293.268,247.732,298.699,242.3,298.699,235.608z"></path> <g> <path style="fill:#1E0478;" d="M286.576,223.485c6.692,0,12.124,5.419,12.124,12.124c0,6.692-5.431,12.124-12.124,12.124h-61.151 c-6.692,0-12.124-5.431-12.124-12.124c0-6.704,5.431-12.124,12.124-12.124H286.576z"></path> <path style="fill:#1E0478;" d="M287.776,380.023c4.74,4.74,4.74,12.414,0,17.143l-46.409,46.421 c-2.376,2.364-5.48,3.552-8.583,3.552c-3.092,0-6.195-1.188-8.571-3.552c-4.728-4.74-4.728-12.414,0-17.155l46.421-46.409 C275.361,375.295,283.035,375.295,287.776,380.023z"></path> <circle style="fill:#1E0478;" cx="279.204" cy="435.016" r="10.341"></circle> <path style="fill:#1E0478;" d="M232.783,378.253c5.722,0,10.341,4.631,10.341,10.341c0,5.71-4.619,10.341-10.341,10.341 c-5.71,0-10.329-4.631-10.329-10.341C222.454,382.885,227.073,378.253,232.783,378.253z"></path> </g> <path style="fill:#9B8CCC;" d="M173.354,335.797v151.956H62.606c-3.334,0-6.062-2.728-6.062-6.062V335.797H173.354z M146.731,397.166c4.728-4.728,4.728-12.402,0-17.143c-4.74-4.728-12.414-4.728-17.143,0l-14.633,14.633l-14.645-14.633 c-4.728-4.728-12.402-4.728-17.143,0c-4.728,4.74-4.728,12.414,0,17.143L97.8,411.799l-14.633,14.633 c-4.728,4.74-4.728,12.414,0,17.155c2.364,2.364,5.468,3.552,8.571,3.552s6.207-1.188,8.571-3.552l14.645-14.633l14.633,14.633 c2.364,2.364,5.468,3.552,8.571,3.552c3.104,0,6.207-1.188,8.571-3.552c4.728-4.74,4.728-12.414,0-17.155l-14.633-14.633 L146.731,397.166z"></path> <path style="fill:#6F7CCD;" d="M173.354,159.654V311.55H56.544V159.654H173.354z M157.048,235.608 c0-6.704-5.431-12.124-12.124-12.124h-17.846v-17.858c0-6.692-5.431-12.124-12.124-12.124c-6.704,0-12.124,5.431-12.124,12.124 v17.858H84.974c-6.692,0-12.124,5.419-12.124,12.124c0,6.692,5.431,12.124,12.124,12.124h17.858v17.846 c0,6.692,5.419,12.124,12.124,12.124c6.692,0,12.124-5.431,12.124-12.124v-17.846h17.846 C151.617,247.732,157.048,242.3,157.048,235.608z"></path> <g> <path style="fill:#1E0478;" d="M144.924,223.485c6.692,0,12.124,5.419,12.124,12.124c0,6.692-5.431,12.124-12.124,12.124h-17.846 v17.846c0,6.692-5.431,12.124-12.124,12.124c-6.704,0-12.124-5.431-12.124-12.124v-17.846H84.974 c-6.692,0-12.124-5.431-12.124-12.124c0-6.704,5.431-12.124,12.124-12.124h17.858v-17.858c0-6.692,5.419-12.124,12.124-12.124 c6.692,0,12.124,5.431,12.124,12.124v17.858H144.924z"></path> <path style="fill:#1E0478;" d="M146.731,380.023c4.728,4.74,4.728,12.414,0,17.143l-14.633,14.633l14.633,14.633 c4.728,4.74,4.728,12.414,0,17.155c-2.364,2.364-5.468,3.552-8.571,3.552c-3.104,0-6.207-1.188-8.571-3.552l-14.633-14.633 l-14.645,14.633c-2.364,2.364-5.468,3.552-8.571,3.552s-6.207-1.188-8.571-3.552c-4.728-4.74-4.728-12.414,0-17.155L97.8,411.799 l-14.633-14.633c-4.728-4.728-4.728-12.402,0-17.143c4.74-4.728,12.414-4.728,17.143,0l14.645,14.633l14.633-14.633 C134.316,375.295,141.991,375.295,146.731,380.023z"></path> </g> </g></svg>